/* XPM */
static char *favicon_64_64_8[] = {
/* width height num_colors chars_per_pixel */
"64 64 255 2",
/* colors */
"   c #000000",
" . c #d2b753",
" X c #dbc360",
" o c #ddc158",
" O c #e3cf6a",
" + c #e6cd5d",
" @ c #efd863",
" # c #f6e76f",
" $ c #f9ec7a",
" % c #eddb6f",
" & c #c3a54a",
" * c #b59e5c",
" = c #9b8350",
" - c #987c44",
" ; c #8d7243",
" : c #806641",
" > c #d2c076",
" , c #d9cf78",
" < c #a89051",
" 1 c #886631",
" 2 c #bca769",
" 3 c #907337",
" 4 c #6f5132",
" 5 c #7b5e35",
" 6 c #c2aa5c",
" 7 c #faf18c",
" 8 c #f1e483",
" 9 c #a07c37",
" 0 c #b49240",
" q c #cab766",
" w c #593419",
" e c #473021",
" r c #63411d",
" t c #b49c51",
" y c #4f361c",
" u c #4d2913",
" i c #3e2719",
" p c #311c14",
" a c #24130a",
" s c #e7de9d",
" d c #3c1b0e",
" f c #583d25",
" g c #f4ed99",
" h c #fdf69d",
" j c #fefaa8",
" k c #ac863e",
" l c #634a2d",
" z c #714b24",
" x c #633a14",
" c c #e1d386",
" v c #714919",
" b c #473831",
" n c #604b48",
" m c #5c5760",
" M c #635d67",
" N c #394151",
" B c #7a4314",
" V c #948a5f",
" C c #523f4c",
" Z c #7e5729",
" A c #6c7791",
" S c #778fc0",
" D c #7689b3",
" F c #7687a1",
" G c #5f73a0",
" H c #3d4966",
" J c #854f1a",
" K c #687fae",
" L c #849dda",
" P c #f4efad",
" I c #c89e40",
" U c #8298c3",
" Y c #6e79a0",
" T c #475578",
" R c #293547",
" E c #222b37",
" W c #c5b174",
" Q c #172f4e",
" ! c #3f4d71",
" ~ c #8daae4",
" ^ c #a69868",
" / c #8795b0",
" ( c #4e5e84",
" ) c #333d5d",
" _ c #546ba1",
" ` c #6583bd",
" ' c #444344",
" ] c #758081",
" [ c #576992",
" { c #8ba2d0",
" } c #5d76ad",
" | c #4a76ab",
".  c #bdac67",
".. c #5779bb",
".X c #445b8b",
".o c #8e8f74",
".O c #56455f",
".+ c #dcb54d",
".@ c #6f93cc",
".# c #4b6399",
".$ c #4a6db5",
".% c #4462a5",
".& c #79551e",
".* c #5c4238",
".= c #88827d",
".- c #9b712f",
".; c #b3832f",
".: c #c6912d",
".> c #cea033",
"., c #d7ae3e",
".< c #8b7c58",
".1 c #676a7c",
".2 c #b5a87e",
".3 c #33476d",
".4 c #fcf4bf",
".5 c #8b5a1d",
".6 c #715d2a",
".7 c #383b3e",
".8 c #9f8643",
".9 c #7d685c",
".0 c #253956",
".q c #392725",
".w c #95672f",
".e c #60606e",
".r c #483744",
".t c #817e6f",
".y c #7d7277",
".u c #949784",
".i c #8b8d88",
".p c #89a091",
".a c #a8985d",
".s c #91919b",
".d c #315cb4",
".f c #174dc5",
".g c #3569c2",
".h c #4473c5",
".j c #a6b5be",
".k c #9cc5a7",
".l c #94ac9d",
".z c #74696f",
".x c #105dd7",
".c c #0895f7",
".v c #10bafc",
".b c #0ea8fb",
".n c #1985f3",
".m c #1a77ec",
".M c #428cdb",
".N c #8fb0ca",
".B c #a8c6bb",
".V c #4c3967",
".C c #443658",
".Z c #6f6b58",
".A c #1f66da",
".S c #1cc5fe",
".D c #45e7ff",
".F c #a6f6ff",
".G c #b5fbff",
".H c #66efff",
".J c #90f7ff",
".K c #125ce5",
".L c #55efff",
".P c #7cf5ff",
".I c #82e9ff",
".U c #d8fdff",
".Y c #0d49d4",
".T c #9fbfca",
".R c #2a6ce2",
".E c #1396f9",
".W c #3dd4fe",
".Q c #69daff",
".! c #2ebafc",
".~ c #42c0fc",
".^ c #53c9fc",
"./ c #b4d0c7",
".( c #32302c",
".) c #877766",
"._ c #2059dd",
".` c #40aef9",
".' c #3388d0",
".] c #539eb7",
".[ c #7ab3b4",
".{ c #87bdb9",
".} c #7abdca",
".| c #58bbe5",
"X  c #2864c9",
"X. c #c7cfc2",
"XX c #7d8490",
"Xo c #67698c",
"XO c #379bf5",
"X+ c #6094a1",
"X@ c #9fb7ad",
"X# c #384f80",
"X$ c #615d4a",
"X% c #2c85e1",
"X& c #71928b",
"X* c #564874",
"X= c #505159",
"X- c #248ef4",
"X; c #35e6ff",
"X: c #3557a2",
"X> c #74766a",
"X, c #9fa88e",
"X< c #635d80",
"X1 c #ebc649",
"X2 c #2cdcfe",
"X3 c #969c9e",
"X4 c #308ceb",
"X5 c #2e49a4",
"X6 c #757086",
"X7 c #2162b8",
"X8 c #8ca8ac",
"X9 c #959594",
"X0 c #3d7ed8",
"Xq c #1950d1",
"Xw c #85b4d3",
"Xe c #d6d99f",
"Xr c #6c5d3c",
"Xt c #23a0f8",
"Xy c #2a41b9",
"Xu c #52ddff",
"Xi c #974e10",
"Xp c #66bee8",
"Xa c #bea640",
"Xs c #9c621c",
"Xd c #9f7d2b",
"Xf c #ae5212",
"Xg c #252723",
"Xh c #ac7319",
"Xj c #1bddfe",
"Xk c #6a5758",
"Xl c #bd7e19",
"Xz c #aad7d4",
"Xx c #529bdd",
"Xc c #4b4936",
"Xv c #735a4a",
"Xb c #ad7231",
"Xn c #a36a10",
"Xm c #57523b",
"XM c #4261c0",
"XN c #a96c27",
"XB c #cf8a1c",
"XV c #10319a",
"XC c #0f7be6",
"XZ c #3d2a47",
"XA c #5995c4",
"XS c #6697b9",
"XD c #9dbbe9",
"XF c #afcef4",
"XG c #96b0de",
"XH c #bee2fb",
"XJ c #dba744",
"XK c #5d531c",
"XL c #b4d6f8",
"XP c #515820",
"XI c #cfc28f",
/* pixels */
"                     . X X X X . . . X . . . . . . o X X . X X X X X X O X X X X X o o . o o o X . X X X X .                    ",
"               . . o o + + @ @ @ @ @ @ @ + o o o o + + @ @ + + . + # # # # @ # $ # @ + + @ @ + @ @ % # % @ % % @ $              ",
"           & & . % O * = - - - - ; : : : - * > , > * < = - ; 1 2 : 3 - ; ; ; ; 3 1 1 1 4 1 5 5 5 5 1 1 5 1 < 6 % 7 8 7          ",
"         9 0 O q 5 w w w e w e e r 1 < t < ; 4 y u u e i i p a s : d w w w w w w w w f f f f f f f w w f f e e f = g h j        ",
"       9 k % = u w r r y r 1 0 o % O < l w f z z z r r r y i x c g i x r r r v r r x r r r r r r r r r r r r r f d y s j h      ",
"     9 1 q : u z z f b 9 & + % , ; w w z z v w f n m M m N f B > h V N M m M M M M M M M m m m m m m M m C y w r r u i s 7 7    ",
"     Z t < u z 4 b l 0 . X % = w w z v x n A S S D D F G H J x > 8 8 F D D D D D D D D D D D D D D D D K S L F e x r u f P 8    ",
"   1 1 * r z z b 5 I 0 O > l w z x w M S U Y T H H H R E x Z x W 8 % < Q ! H ! ! H H H H ! ! T T ! ! H H H H D ~ C r r d ^ 7 $  ",
"   Z < - r z b 4 0 9 X 2 u r z w m L / ( ) H ( _ K ` _ ' J Z x 2 8 X o ] ` S S S S S K K K K K K K K [ G G ( ) [ ~ e z w f 8 #  ",
"   r * 5 z l l 9 1 6 * u z r e S { T ) ( } ` ` K K } ! v Z z w 2 % X X q | S S S S S K K K K K K K K G G K K G H D F x r u q %  ",
" z r * Z Z l 1 1 *.  u z x C ~ D ) T }.. } } K } }.X b J z z w * O O O o.o.. S S S D K K K K K K K K G G G G K ( T ~ f Z u < O .",
" z z * Z Z Z Z 0 q u z x.O L ( ) _ ` K } } K K G _ ) x r r r w 5 1 1 - 0.+ A.@ S S S K K K K K K } K } G K G G G H { n Z w = % X",
" z r < Z Z z 1 q f z r n { H N.#.$ ` ` } ` S K _.X e y e y r 1 Z 1 3 5 5 1 :...@ S U S S } }.$.% G K } _ } } G K ! { M.& r = O .",
" z f 0 9 z w 6 ; w z.* L ! E < s.= (.% } ` S.@.X N y r Z 1.-.;.:.:.>.,.+ . &.< [...@ } _.X (.1.2 W A } } } } G K ! U M v r < O X",
" z z r 3 z 5 * w z u { G R.3 e *.4 > ^.1.# _ T y r z z z.5.-.;.:.> I.+ o @ # # +.<.X T.=.  X @ ..6 _ } } _ G } K T U M v r = O O",
" r 1 z z r < 1 r x A U ) T !.7 x.2 g O o < b x v z r Z - k k 9 1 3 -.8 * O $ $ $ $ 6 O # @ @ q z.9.% } S K } } K T U M.& r = # O",
" w 5 O 1 z < r Z f ~ ! ( _ T.0 Z u.2 8 6 & z y w 4 1 - 5 f b b b e.q e e w 4 * g 7 % 8 8 @ O l.w.e _ } K } } } K ! U.e.& z * # X",
" r u > - - - z x Y D ! } }.X.0 l r p W X t e i.8 - l e b b.r C C C C.r.r b e u v W h 8 8 7 5 1.w.X } K K K } } K ! U m.& r * % X",
" r u = 1 < Z Z f ~ T [ K G [ H.7 z y i > 6 l < 5.q b.r C.9.t.y.u.i.p.u.y m C.r e u ; g j 9 J.- ;.# K K G G } G K T K m z w * % O",
" r w < - = Z.&.1 U ! } } G [ T R r y y i.a & f e b n.9.u.s.d.f.$.g.h {.j.k.l.z C.r e r s O 0.; m _ K K G G G G K ! D.e v w * O O",
" r w < < ;.w r U [ ( G G G [ ! N e i p f.8 e b.*.9.o.s...x.c.v.b.c.c.n.m.M.N.B.i.V.C e x P 7 @.Z.# K K G G G G G H D m v w * % O",
" r w - * Z 1.* L ! [ G G G ( ! e i i e.8 y b n.<.u D.A.n.S.D.F.G.H.J.F.H.b.K.f U.l.V.C e.&.4 7 + ! } G G G G [ G H D.e v w 2 % X",
" r w t * Z.5 m U ! [ [ [ [.X.7 u y u.8 l e 4.<.i D.A.b.L.P.I.F.U.F.F.F.F.J.J.b.Y.T.k.V.C.q = j $ ^.X G G [ [ [ G H D M v w 2 O X",
" r w q < Z.&.1 D T [ [ ( ( H i y u 1 3 e l.<.i /.R.E.W.P.H.J.F.Q.!.~.^.Q.F.J.H.b.x./.l.V.r u s h % H.X G G [ G K H D.e v w k @ X",
" r u > - Z v Y K ( G [ ( !.( w y y.8 y f ;.) _._.E.W.J.H.P.`.'.].[.{.}.|.!.F.P.F.nX X.XX.C y z % #.<.3.# G G G K H D.e v w * % X",
" r x < 3.w r D G ( [ ( H b y r w 1 3 y 4 VXo.Y.!.F.H.P.PXOX+ ^.a.a V.oX@.^.I.J.P.P.K...k.V.r i > # . -.tX# ( [ G H D.e v w 2 % .",
" r z - 1.- r U Y ( !X$.& w w r w.8 r f 5 V /.m.P.J.D.WX%X& V.<.< = = V.o./.!.L.H.U.~X .BX* C.( f # # : o q mX# [ H F.e v r ; O .",
" r r < 1.w l.@.#X= -.; z w r r z 9 y z :.) /X-.H.LX;.!X:X>.t.t ].t.<.< VX,.|.Q.P.J.J.A.jX<.O b f k $ ; < O % ^ (.0 G M v r 1 X X",
" r r < 1.w.q.X.aX1 I.w r y v r 1 1 y z : V /XO.F.LX2.!X:.1.1 _.g | ] V V.t.}.^.P.D.J.R UXX.O.r f 2 o t 1 O O @ %.Z (.O v w 2 % .",
" r r t Z f ; + @ . k 1 r y.& v 3.6 r z :.<X3X4.I.H.D.!X5X6.$.n.!.nX7.=.<.) /.`.HX2.PXO..X8.O.r.q = X 9 5 % O O O $ cX$ u w - O .",
" r w - = % # # + o I 1 r y.& v 9.& r z 1.<X9X0.!.L.D.LXq [Xw.!.J.P.n [.).) FXO.PX2.P.`.dX3 M.r e ; % Z - g g g 7 h j jXe 4 ; % .",
" r uXr X 6 = = 3 < - z y r.5 r z.& r z 1.<.=.N.E.J.D.PXtXy.g.nXu.LXu.d.).9 FXO.J.D.H.`.dX3.z.r e z + 0 l ; 1 - - = - k.+ ; 5 % .",
" r y l p xXi J J v r y e r.5 z &.5 r z Z -.).sXp.~.J.H.P.!.n.W.H.D.DX .z.zX@X-.P.D.L.`.$X9.y.r e 5X1Xa f r r v r BXiXi u d : % .",
" r w 5 y e e.5Xs.5.5.& y yXs B 0Xd r v Z 3.<.yX8.`.^.P.D.D.DX;.D.P.W.f.z.z.$X-.LX;.LXt.$.i.9.r i 1X1.> f r z z JXf l E y u : % .",
" r w 3 Z rXg R rXs.5.& y yXh J 0Xa x v.& 1 ;.<X6.TXO.H.H.D.DX;.L.PX-.%.zXo.K.~.HXj.HX4 G.iXk b i -.,.> e r JXi zXg.3 N r w 5 # .",
" r w < 3 1.( T H.7 r.5 r iXl.5.8 + x.&.& 1 1 ;.)X6XzXO.Q.J.PXu.~.n.$ ]X<.f.b.G.L.H.QXq A.= n b.q &.: 0 e J J.7.3 E ( m v r ; # .",
" r w t 9 k b G [ H ).( v uXsXh r ..&.&.&.& 1 1 ;.9.=.BXxXOX4.M.@X8XX (.f.E.H.DXj.J.`.d.=.9.*.q b I.: 9 x f ) ( D N [ m v r - % .",
" r x t k kXc S K ( ( ) R.( vXlXi qXa x.& z Z 1 1 ;.9.9.i.lX8 F Y [X5.x.!.L.L.DX2.LX0Xo.=Xv bXg 1Xb.:.6 R ! G D S H G M v x = % .",
" r r t k 0Xc L S K G ( H R.(XlXn ; % x.5 z z 1 ; ;.<.).yXo.#X:.f.x.EX2.H.DXjXjXu.^ }.y.) n e eXbXs.: N T G S D U H G m.& x.a O .",
" r r < k 0Xm L U D K G G H.0.&Xl J ,Xa B Z 4 5 :.9.).y YXM.KXt.^.W.L.L.DX2.W.H.^.h.=.) : b i 4.wXN :.3 K K U S D T D n.& x 2 O .",
" r r < k 0Xm L U D D K K G H.7XlXh Z ..& Z 4 nXv.9X<Xy._.n.W.L.H.DX2X2.H.H.HXO.%.t.9 :.* e f.w.5XN N ( K K S S K T S.* Z r 2 O .",
" z w * k kXc L U K D K K G (.0.&XB B ; O r 4Xv (XVXq.!.W.H.LX2X;.D.L.L.HXu.n.d MXv : l e e.- ZXsX$ ! G D K K S G T S l Z z * O .",
" z x < 0 kXc { U G D D K G T H.( v v d > % bXvX9X0XCX2.DX;.L.LXuXu.~XOX%.$.= =Xv 5 z e e 3 J.-.8.0 [ K K G K D ( [ Y r z 5 = O .",
" r r * k 0Xm L U K D D D K ( N r r y e : 8 OXZXk.o.s `XxX4.nX-.MXAXSXX.).<Xv 4 z r y y.8 X o # X ) } K D K D D T D.e.& z ; : % &",
" r r 2 0 kXm L U K K K K G !.7.5.&.- 0Xr p > % m.C.O.O.z.iX3.=.tXkXvXv.*.* l l f y.& 3 e < # + @X>.X K K G K G ( L f Z z ; 4 % .",
" r w * 0 0Xm ~ U K K K G [ H l.;Xa . l y.& J.a c. X=.C C C n n.*.*.* l l l f y.& 1.6 i i i.8 # o 2X# K K [ K ( G K r Z 1 : l % .",
" r y * 0 0Xm ~ { K K K G [.0Xd & t f r z.&XBXn z.a > q.<Xr.*.* b f f f l z 1 9 1 y i y r f i.8 @ o T } K G G T L n Z z - z 4 % .",
" r w * k 0XmXD { K K K G.X b., < r J.5 J eXhXlXh J f ; t . & 0 9 9Xd.- 1 3.6 e i e y y r z z w 5 O.o.# K G T G D y Z Z = w 4 O &",
" r r 6 k kXm K U K K K [ H.-.; B v r.7 R.0 E.&XlXlXs v w e f l l r f y e e e y y y e R R b r v B.- >.X } ( T L b z z - ; r 4 % .",
" r r 6 0 0Xm D { G G G ( N r b.7 ) !X# ! ! ) Q b.5XhXs.5 J r r r r r r r r y y y.7 H H.3 ).0 R b e 9.1 ( ! S.1 v 1 z < r r Z % &",
" z z t 0 0 lXF { K K K G ( ! ! T [ [ [ _ [ T ! ) Q y v.&.5.5 J J v v r r w y.7 ) T [ ( T ( T ! H.3 ! T H D S r.w z = - z r Z % .",
" r r 6 0 k lXDXG D K K K G [ [ G G K G G [ [ _ !.0 E w i i y y y y y e e y.7 ! T [ G _ [ [ [ [ [ [ T N D S y.w Z ; < Z Z r 1 O I",
" r x q & & l {XD U K K K K G G K K K K K G _ _ ( H.0 f v e i i e f y y z r ) [ _ G K G G [ [ G G ( H D S y.- 3 1 < 1 1 Z z - X.;",
" r x W X ..6 DXF { D K K K G G K K G G K K K G G ( H RXs z y i y r z.- I N.X G G G K G K K G [ ( ( U D y 9 3 3.a.w.w z z z * . 0",
"   x = % . 0 nXHXG U K K K G G G K K G G K K G G [ T.0 f.5 r i 9 I IXJ.<.3 [ G G G K K G D [ ( D ~XoXK k 3 9 = ;.w 1 b Z Z q .  ",
"   z : 6 X o.6 /XL { S K K G G G K K K G G G G [ [ T H R.5.& y 9.+ I &.0 ( G G G G G G G [ D ~ SXm.& 0.-.8 * 1.w.w b f.w 9 O.+  ",
"   z Z c X . oXP UXHXGXG { { { { { { { { { { { { { U K TXc.5 w 9 IXJ.Z.# S U U S D S U { ~ S nXK 9 0 9 < * Z Z Z b b 9.w 6 ..+  ",
"     x 4 8 O O oXP.zXGXFXFXFXFXFXFXFXFXFXFXFXFXLXLXFXG K ! Z v -XJ t.#XGXDXDXG ~ ~ ~ S.1XmXK 9 0 9.8 6 < z Z z e b 9 9 k q I    ",
"     z u V 8 X o +.8XKXmX$X$X$X$X$X$X$X$X$X$X$XmX$X$Xm b E.(.5.8 + '.7X$X$X$X$XmXmXm.6 3 0 0 9 k * 6 5 z Z 5 l 1 0 0 k 6 0 I    ",
"       J u : g O . o + X . . . . . . . . . . . 6 . . . & 3Xc y & qXr & . & & & & & & & & 0 t 6 2 ; Z Z 3 0 & I 0 k & > k.;      ",
"         z x 4XI % O + O O X O X o o X o o o X O . . . . 0 3 y.a < 0 . . . . & & & & 6 6 * < - 1 9 0 & & . & & & 6 q 3.-        ",
"           J B u l = ^ < *. .  2 2.  2 2 W.8 ^ W * * * * < 3XrXc ; t * * 6 *. . .  > 2 < = < t * 6 * *.  2 * < = 1 z 1          ",
"               z r x x x w w w u u w w w w r x w w w w w w w y w w w w w w w w w x w w w r w w w w w w u u w w r z              ",
"                     r r r r r r f r r r r r r r r r r r r r w r r f r r r r r r r r r r r r r r f w w f y f                    "
};
