/* XPM */
static char *favicon_16_16_8[] = {
/* width height num_colors chars_per_pixel */
"16 16 244 2",
/* colors */
"   c #000000",
" . c #b89e4c",
" X c #ba9f4b",
" o c #cfb34e",
" O c #d1af49",
" + c #c2a044",
" @ c #b59f4b",
" # c #c29f3e",
" $ c #b99739",
" % c #b59037",
" & c #b7963c",
" * c #c29f41",
" = c #7c5a32",
" - c #795a31",
" ; c #b08738",
" : c #6c4d27",
" > c #564a50",
" , c #323963",
" < c #805e3a",
" 1 c #9c9175",
" 2 c #374465",
" 3 c #505862",
" 4 c #4e5865",
" 5 c #4b5367",
" 6 c #3f3747",
" 7 c #7d5f42",
" 8 c #84602f",
" 9 c #805d2e",
" 0 c #a47a30",
" q c #625a57",
" w c #4d63b1",
" e c #5988e1",
" r c #475476",
" t c #804a14",
" y c #ddc268",
" u c #5e88ce",
" i c #5585d5",
" p c #547dcb",
" a c #5e80c0",
" s c #5b79c1",
" d c #4a424f",
" f c #c7a64a",
" g c #7e5a2b",
" h c #906727",
" j c #575451",
" k c #5d6376",
" l c #a5a2b0",
" z c #596b94",
" x c #63410e",
" c c #9e6313",
" v c #c28310",
" b c #c1b968",
" n c #92a9b7",
" m c #a2996f",
" M c #68779a",
" N c #5b7ac6",
" B c #5d5e75",
" V c #c6a245",
" C c #85632f",
" Z c #8d692f",
" A c #586eb6",
" S c #394d76",
" D c #987324",
" F c #876324",
" G c #6d3e1f",
" H c #4e506f",
" J c #4a5678",
" K c #736835",
" L c #ecbf58",
" P c #c9a142",
" I c #4768a8",
" U c #5c7cc2",
" Y c #515467",
" T c #d0b04a",
" R c #8a6428",
" E c #87715a",
" W c #4e73b5",
" Q c #42496c",
" ! c #4c3011",
" ~ c #744c38",
" ^ c #519ee5",
" / c #60f5ff",
" ( c #74f8ff",
" ) c #5bbefc",
" _ c #3d4a59",
" ` c #c7a662",
" ' c #6482a8",
" ] c #4463b0",
" [ c #505060",
" { c #cfab48",
" } c #885e1e",
" | c #71727e",
".  c #596682",
".. c #58380a",
".X c #7b4e10",
".o c #669ad0",
".O c #4ce7ff",
".+ c #839279",
".@ c #8f8d5b",
".# c #7aeeff",
".$ c #5fb0f6",
".% c #695d33",
".& c #c9ad57",
".* c #687e96",
".= c #3c4767",
".- c #c69c45",
".; c #755128",
".: c #b8a85b",
".> c #a17a23",
"., c #6a4512",
".< c #7e490c",
".1 c #79c2e0",
".2 c #41ccff",
".3 c #3975cc",
".4 c #698f97",
".5 c #77afb2",
".6 c #55f0ff",
".7 c #4f3a53",
".8 c #b58c36",
".9 c #e9dc6d",
".0 c #a38d5c",
".q c #b6964a",
".w c #6c4b22",
".e c #685128",
".r c #623c09",
".t c #90621b",
".y c #865e10",
".u c #8b6e54",
".i c #68ecff",
".p c #47f1ff",
".a c #4e84b7",
".s c #4da5d5",
".d c #50e5ff",
".f c #633e48",
".g c #a87c22",
".h c #5a2a18",
".j c #4c3330",
".k c #b99a46",
".l c #94671d",
".z c #7b8692",
".x c #4a5491",
".c c #865d19",
".v c #a37b27",
".b c #7c4b0d",
".n c #8d6e6b",
".m c #5590d0",
".M c #39abe7",
".N c #36f5ff",
".B c #6887b7",
".V c #66390e",
".C c #85692c",
".Z c #5776c2",
".A c #454e6d",
".S c #cba447",
".D c #90651a",
".F c #8f9193",
".G c #7198ed",
".H c #475567",
".J c #976c23",
".K c #886f56",
".L c #2b78dc",
".P c #3ae7ff",
".I c #4ceefc",
".U c #65819f",
".Y c #713b14",
".T c #9c7827",
".R c #5d6e9a",
".E c #6b8ccf",
".W c #5b5757",
".Q c #c9a545",
".! c #90661d",
".~ c #919192",
".^ c #5f81cb",
"./ c #736947",
".( c #7e570f",
".) c #a07928",
"._ c #93865c",
".` c #746255",
".' c #714123",
".] c #6e3e06",
".[ c #482c0f",
".{ c #c09b2d",
".} c #868da0",
".| c #586ebd",
"X  c #6a512f",
"X. c #b99940",
"XX c #966919",
"Xo c #959395",
"XO c #5d7dba",
"X+ c #5c584c",
"X@ c #4c577a",
"X# c #3a4e5e",
"X$ c #7a4a09",
"X% c #6f440d",
"X& c #5d390b",
"X* c #47351d",
"X= c #3e4976",
"X- c #3e424c",
"X; c #5d677a",
"X: c #6a6976",
"X> c #84561b",
"X, c #ae8d40",
"X< c #9f772b",
"X1 c #b6b58b",
"X2 c #6e94dd",
"X3 c #5676be",
"X4 c #6688d0",
"X5 c #517ed7",
"X6 c #333768",
"X7 c #5f3506",
"X8 c #98712d",
"X9 c #4163af",
"X0 c #6388cf",
"Xq c #567ac2",
"Xw c #6d7175",
"Xe c #a07328",
"Xr c #784e2a",
"Xt c #bc9b44",
"Xy c #ebcf5e",
"Xu c #b7ba93",
"Xi c #abafb0",
"Xp c #b0b0a8",
"Xa c #bcb8b5",
"Xs c #8fa1a0",
"Xd c #84662d",
"Xf c #a9a36e",
"Xg c #929bb2",
"Xh c #98978c",
"Xj c #a78f55",
"Xk c #b08a35",
"Xl c #977437",
"Xz c #a5833f",
"Xx c #9a7126",
"Xc c #9c7324",
"Xv c #986f24",
"Xb c #9a7223",
"Xn c #9c7726",
"Xm c #6f5329",
"XM c #84642d",
"XN c #9a7421",
"XB c #966f23",
"XV c #8b652a",
"XC c #866632",
"XZ c #8a6a35",
/* pixels */
"     . X o O + @ . # $ % & *    ",
"   = - ; : > , < 1 2 3 4 5 6 7  ",
" 8 9 0 q w e r t y u i p a s d f",
" g h j k l z x c v b n m M N B V",
" C Z A S D F G H J K L P I U Y T",
" R E W Q ! ~ ^ / ( ) _ ` ' ] [ {",
" } |. ...X.o.O.+.@.#.$.%.&.*.=.-",
".;.:.>.,.<.1.2.3.4.5.6.7.8.9.0.q",
".w.e.r.t.y.u.i.p.a.s.d.f.g.h.j.k",
".l.z.x.c.v.b.n.m.M.N.B.V.C.Z.A.S",
".D.F.G.H.J.K.L.P.I.U.Y.T.R.E.W.Q",
".!.~.^./.(.)._.`.'.].[.{.}.|X X.",
"XXXoXOX+X@X#X$X%X&X*X=X-X;X:X>X,",
"X<X1X2X3X4X5X6X7X8X9X0XqXwXeXrXt",
"  XyXuXiXpXaXsXdXfXgXhXjXkXlXz  ",
"    XxXcXvXbXnXmXMXNXBXVXCXZ    "
};
