/* XPM */
static char *favicon_32_32_8[] = {
/* width height num_colors chars_per_pixel */
"32 32 255 2",
/* colors */
"   c #000000",
" . c #dcc564",
" X c #eed864",
" o c #dec55a",
" O c #f5ec72",
" + c #f4e370",
" @ c #f0e16a",
" # c #e6ce5d",
" $ c #e2cf64",
" % c #ba9c49",
" & c #af9346",
" * c #705232",
" = c #57422c",
" - c #8e6e41",
" ; c #9a884e",
" : c #a28f56",
" > c #a48949",
" , c #876334",
" < c #724d25",
" 1 c #533924",
" 2 c #958554",
" 3 c #7b5d40",
" 4 c #664528",
" 5 c #623e1e",
" 6 c #977c46",
" 7 c #ede586",
" 8 c #f5ef97",
" 9 c #987336",
" 0 c #c7ad53",
" q c #4a2e20",
" w c #b18c37",
" e c #5b3a15",
" r c #5a4a47",
" t c #231923",
" y c #ba9b53",
" u c #beb06f",
" i c #341d2c",
" p c #63503f",
" a c #422011",
" s c #301a0d",
" d c #d4cb94",
" f c #4f3113",
" g c #685655",
" h c #6a6f8b",
" j c #5d6f9c",
" k c #48598d",
" l c #9e7a3d",
" z c #fdf58b",
" x c #616984",
" c c #53699f",
" v c #586994",
" b c #6f86a5",
" n c #c8a249",
" m c #a99a51",
" M c #6d75a1",
" N c #4f6495",
" B c #5c74a8",
" V c #5a81c7",
" C c #4f4a53",
" Z c #7a3c0b",
" A c #f4ed83",
" S c #c8b262",
" D c #4e77c0",
" F c #6983ba",
" G c #657aaa",
" H c #967f52",
" J c #4c2615",
" K c #6c626f",
" L c #5876bb",
" P c #5879b2",
" I c #6189c3",
" U c #58331b",
" Y c #818684",
" T c #668cde",
" R c #7792c2",
" E c #6377b5",
" W c #634f31",
" Q c #4e5d7f",
" ! c #84826d",
" ~ c #3e68b6",
" ^ c #413a32",
" / c #a6792a",
" ( c #b79034",
" ) c #5783d3",
" _ c #4462a5",
" ` c #76898f",
" ' c #858691",
" ] c #845b2f",
" [ c #e9d669",
" { c #7d5329",
" } c #283c57",
" | c #eee497",
".  c #596371",
".. c #724912",
".X c #8c6224",
".o c #a67c35",
".O c #b0842e",
".+ c #d7b44c",
".@ c #9a936b",
".# c #d5af3c",
".$ c #5c6262",
".% c #3a2f29",
".& c #654c21",
".* c #785d2d",
".= c #d0b857",
".- c #8e6c31",
".; c #3d4663",
".: c #785f4c",
".> c #7991a6",
"., c #768179",
".< c #e5de86",
".1 c #6f6e7b",
".2 c #393e54",
".3 c #3e2c0f",
".4 c #90877b",
".5 c #467ad9",
".6 c #23abfb",
".7 c #56e1ff",
".8 c #4ec7fe",
".9 c #5ccffd",
".0 c #46a1f4",
".q c #5b4f66",
".w c #dfcd74",
".e c #3e5893",
".r c #7b5715",
".t c #6b7399",
".y c #9d8e7f",
".u c #266bef",
".i c #3ce2fe",
".p c #8ef9ff",
".a c #acf2ff",
".s c #7febff",
".d c #2c9df9",
".f c #74b7d4",
".g c #39213a",
".h c #fef69d",
".j c #3257a1",
".k c #7d5b21",
".l c #837760",
".z c #2c66e6",
".x c #7af6ff",
".c c #57b7ed",
".v c #758c84",
".b c #839e75",
".n c #78a5b4",
".m c #70e4fe",
".M c #97feff",
".N c #4085f7",
".B c #2b272b",
".V c #496fc8",
".C c #60faff",
".Z c #2b96e4",
".A c #796b58",
".S c #6ef6ff",
".D c #6290d2",
".F c #2f4986",
".G c #6c4419",
".H c #bfc171",
".J c #ebc442",
".K c #6f5221",
".L c #67c8fd",
".P c #4bf9ff",
".I c #2f67c3",
".U c #258deb",
".Y c #3276c3",
".T c #59f6ff",
".R c #5b91e2",
".E c #f1e57a",
".W c #afbb8a",
".Q c #95846a",
".! c #43adee",
".~ c #3d40b7",
".^ c #47e2fe",
"./ c #5e5879",
".( c #7e6d65",
".) c #4290e4",
"._ c #7a7983",
".` c #322621",
".' c #ccbb73",
".] c #ebd777",
".[ c #8a4214",
".{ c #895319",
".} c #7e96b3",
".| c #26bcfb",
"X  c #4df2ff",
"X. c #786773",
"XX c #45c5fa",
"Xo c #807a79",
"XO c #c6a03c",
"X+ c #a1842f",
"X@ c #833514",
"X# c #97822e",
"X$ c #8a6d52",
"X% c #77a5d3",
"X& c #50a6ec",
"X* c #2959c9",
"X= c #946923",
"X- c #6b400f",
"X; c #32406b",
"X: c #4b4243",
"X> c #806f37",
"X, c #424b77",
"X< c #ae6d1d",
"X1 c #82939f",
"X2 c #70a0c8",
"X3 c #42f2ff",
"X4 c #6d6593",
"X5 c #ce9832",
"X6 c #4b4461",
"X7 c #887539",
"X8 c #7693d2",
"X9 c #7489b7",
"X0 c #1c3b4b",
"Xq c #ab6512",
"Xw c #866f2d",
"Xe c #997041",
"Xr c #815b67",
"Xt c #444ba8",
"Xy c #3774d1",
"Xu c #34597b",
"Xi c #2f4aa4",
"Xp c #2193f4",
"Xa c #48d5fe",
"Xs c #506cb4",
"Xd c #955818",
"Xf c #545544",
"Xg c #6e82af",
"Xh c #373a41",
"Xj c #604c57",
"Xk c #437ac4",
"Xl c #48d1f3",
"Xz c #7e99db",
"Xx c #bd9c71",
"Xc c #5b3e56",
"Xv c #69546d",
"Xb c #633c37",
"Xn c #435762",
"Xm c #c67c16",
"XM c #163c5d",
"XN c #92ade9",
"XB c #203334",
"XV c #87a0e6",
"XC c #444a57",
"XZ c #836417",
"XA c #9db8f5",
"XS c #937117",
"XD c #b3a12c",
"XF c #97b8e9",
"XG c #4370a0",
"XH c #6e7782",
"XJ c #55240a",
"XK c #a19b40",
"XL c #797a49",
"XP c #8e8747",
"XI c #97883c",
/* pixels */
"         . X X X o o o X X X X o X O + + @ # X X X @ X $        ",
"     % # & * = * - ; : > , < 1 2 3 < < < < 4 4 4 4 5 < 6 7 8    ",
"   9 0 4 q q w 0 > < e e = r t y u i p p p p p p p p = a s d 8  ",
"   > * 1 * # $ 4 f g h j j k 5 l z x c j j j j j j v j b e s 8  ",
" < 6 4 4 n m a p M N N B V C Z - A S D F F B G G B j v N b a H $",
" < - < l & J K L N P F I N e U 4 m n Y T R F F L P B G v E W * X",
" < 9 < > e K Q ! F ~ T V ^ e < / / w ( j ) D _ ` ' B B B G p ] [",
" < { , , W E } 3 | u.  1...X.o.O (.+ O +.@.@ @.#.$ L B B G p ] +",
" 4 m -.. M N _.%.& 7.X 5.* W = = ^.% i 6 A z.= < N E G B B p.- +",
" U 6 9 * E j B.; J = % W 1.: x _ P.>., ^ i.< n < L G B B j W , +",
" U >.X.1 v B B.2.3 = W 4.4.5.6.7.8.9.0 R.q t 7.w.e G j v j p , +",
" 5 y.r.t v j.e.3 5.* 4.y.u.i.p.a.s.s.p.d.f.q.g.h !.j j v j p ] X",
" 5 >.k G c k ^ f.*.&.l.z.7.x.c.v.b.n.m.M.N.n.B & [.q.e N j p , +",
" 4 9.*.V.$.k e <.* < '.8.C.Z.A H 6 l.f.S.s.D.q i X n S Q.F p { $",
".G l W.H.J < e.k.K < '.L.P.I K.U.Y 6 Y.7.T.R.1 i.= l.E O.W ^ ] X",
" U ; [ o % 1 5.k.K.k.Q.0.C.!.~.^.^./.(.9.T.)._.` % l u.'.].w 3 #",
" U 1 J.[.{ 1.G /.k.K 6.}.9.S.|.^X  kX.XX.P.)Xo.BXOX+ a ZX@ a 5 X",
" 5 l ^.2...G...OX#.G.-X$X%.7.TX X&./X*.TX .V.A t.#X=X- =X;X: { X",
" 5 %X> PX,.%X-X< &X-.k.-X$X1X2 E v.I.iX3.8X4 p.%X5.&X6 I N p ] [",
" 5 &X7X8X9 NX0Xq %Xw < ,XeXrXtXy.dX3X3.i IX$ q {X<XuX8 R v W - $",
" 5 &X>X8X9 R N WX< > < gXiXp.i.PX3X XaXs 3 = qXdXf BX9Xg j.&Xe X",
" 5 %X>X8XgX9 BXh f - uXjXkXl.iXX.c I K { 5.&.+XO.F FXg j j.. - o",
" 5 %X7XzXgXg k.K ( 4.-Xx.AXcXvXjXb 4.G.&.K q m + x B G B K.r 3 o",
" 1 %X7XzXg GXnX5X= e.{Xm > 2X7.*.*.K.*.K f f J w uXs v E.& , * o",
" 5 %Xw RXg c W.K ^.;XM.&Xq.{ < < < 5 U.3 ^.2 ^ a.o v B K.r , 4 #",
" 5 %XwXNXg G Q k P B N.FXBX- 5 5 e f f.; c N N.e.; Q M.r l ] 4 o",
" U oX#XV R G G G G G G BX; e f.` 1X=XCXs G G j j B.tXZ l l < - 0",
" f S.#.vXAXg j j G G G j kXh.. W.J >.e B G G F F.1XS > l < 1 n %",
"   - AXD `XNXNXNXNXNXNXNXF D =X= nXGXVXzX8 FXHXw.O > , 4 1 l.=  ",
"  XJ H A.#XK m m m m m m m ; ^.o :XL >XPXIX+ ( % >.- 9 l n y w  ",
"    XJ 3 S o o . o ..= ..= oXI W m.=.=.=.= S m > & 0.= n > 9    ",
"         J U U J J U U U U U U U U U U U U U U U U q q q        "
};
